<?xml version="1.0" encoding="utf-8"?>
<!-- Generator: Adobe Illustrator 19.1.0, SVG Export Plug-In . SVG Version: 6.00 Build 0)  -->
<svg version="1.0" id="Capa_1" xmlns="http://www.w3.org/2000/svg" xmlns:xlink="http://www.w3.org/1999/xlink" x="0px" y="0px"
	 viewBox="0 0 1300 600" style="enable-background:new 0 0 1300 600;" xml:space="preserve">
<style type="text/css">
	.st0{fill:#1E1E1C;}
</style>
<circle class="st0" cx="457.8" cy="93.4" r="14.7"/>
<circle class="st0" cx="832.3" cy="508.7" r="14.7"/>
<circle class="st0" cx="1014.7" cy="49" r="12.2"/>
<circle class="st0" cx="44.2" cy="167.8" r="12.7"/>
<circle class="st0" cx="375.6" cy="528.8" r="12.7"/>
<circle class="st0" cx="317.9" cy="378.3" r="8.9"/>
<circle class="st0" cx="820.6" cy="363.8" r="8.9"/>
<circle class="st0" cx="702.3" cy="437.8" r="8.9"/>
<circle class="st0" cx="534.8" cy="31.6" r="8.9"/>
<circle class="st0" cx="204.8" cy="109.6" r="6.9"/>
<ellipse class="st0" cx="39.5" cy="452.8" rx="20.7" ry="19.9"/>
<ellipse class="st0" cx="934.5" cy="537.8" rx="20.7" ry="19.9"/>
<ellipse class="st0" cx="616.5" cy="556.8" rx="20.7" ry="19.9"/>
<ellipse class="st0" cx="493.1" cy="387.2" rx="20.7" ry="19.9"/>
<ellipse class="st0" cx="730.5" cy="34.8" rx="20.7" ry="19.9"/>
<ellipse class="st0" cx="1251.5" cy="536.9" rx="20.7" ry="19.9"/>
<ellipse class="st0" cx="87.5" cy="218.8" rx="20.7" ry="19.9"/>
<circle class="st0" cx="187" cy="543.8" r="7.7"/>
<circle class="st0" cx="601.9" cy="102.7" r="14.7"/>
<circle class="st0" cx="1152.3" cy="62.2" r="14.7"/>
<circle class="st0" cx="168.2" cy="205.2" r="11.2"/>
<circle class="st0" cx="277.3" cy="155.3" r="6.2"/>
<circle class="st0" cx="205.9" cy="437.8" r="2.3"/>
<circle class="st0" cx="388.2" cy="338" r="2.3"/>
<circle class="st0" cx="772.9" cy="235" r="2.3"/>
<circle class="st0" cx="450.6" cy="42" r="2.3"/>
<circle class="st0" cx="820.6" cy="19" r="2.3"/>
<circle class="st0" cx="656.6" cy="26" r="2.3"/>
<circle class="st0" cx="925.6" cy="82" r="2.3"/>
<circle class="st0" cx="897.6" cy="401" r="2.3"/>
<circle class="st0" cx="222.6" cy="34" r="2.3"/>
<circle class="st0" cx="667.9" cy="155" r="2.3"/>
<circle class="st0" cx="505.9" cy="123" r="2.3"/>
<circle class="st0" cx="317.9" cy="32" r="2.3"/>
<circle class="st0" cx="167.9" cy="49" r="2.3"/>
<circle class="st0" cx="126.9" cy="129" r="2.3"/>
<circle class="st0" cx="20.9" cy="70" r="2.3"/>
<circle class="st0" cx="130.9" cy="270" r="2.3"/>
<circle class="st0" cx="13.9" cy="273" r="2.3"/>
<circle class="st0" cx="35.9" cy="345" r="2.3"/>
<circle class="st0" cx="216.9" cy="297" r="2.3"/>
<circle class="st0" cx="215.9" cy="352" r="2.3"/>
<circle class="st0" cx="132.9" cy="479" r="2.3"/>
<circle class="st0" cx="253.9" cy="554" r="2.3"/>
<circle class="st0" cx="699.9" cy="572" r="2.3"/>
<circle class="st0" cx="816.9" cy="459" r="2.3"/>
<circle class="st0" cx="403.2" cy="462.3" r="2.3"/>
<circle class="st0" cx="739.9" cy="462.3" r="2.3"/>
<circle class="st0" cx="927.9" cy="145" r="2.3"/>
<circle class="st0" cx="811.9" cy="147.3" r="2.3"/>
<circle class="st0" cx="143.5" cy="365.2" r="13.2"/>
<circle class="st0" cx="1103.6" cy="422" r="6.9"/>
<circle class="st0" cx="1067" cy="517.6" r="11.2"/>
<circle class="st0" cx="1176.1" cy="467.7" r="6.2"/>
<circle class="st0" cx="1121.4" cy="346.4" r="2.3"/>
<circle class="st0" cx="1216.7" cy="344.4" r="2.3"/>
<circle class="st0" cx="1066.7" cy="361.4" r="2.3"/>
<circle class="st0" cx="1143.4" cy="154.8" r="8.9"/>
<circle class="st0" cx="1176.4" cy="205.3" r="2.3"/>
<circle class="st0" cx="1071.4" cy="125.3" r="2.3"/>
<circle class="st0" cx="1237.4" cy="177.7" r="2.3"/>
<circle class="st0" cx="1215.4" cy="117.7" r="2.3"/>
<circle class="st0" cx="979.4" cy="285.1" r="8.9"/>
<circle class="st0" cx="415.5" cy="238.6" r="14.7"/>
<circle class="st0" cx="1012.3" cy="335.6" r="2.3"/>
<circle class="st0" cx="968.1" cy="216.3" r="2.3"/>
<circle class="st0" cx="634.8" cy="250.6" r="6.9"/>
<circle class="st0" cx="598.2" cy="346.2" r="11.2"/>
<circle class="st0" cx="707.3" cy="296.3" r="6.2"/>
</svg>
